<?xml version="1.0" encoding="utf-8"?>
<!-- Svg Vector Icons : http://www.onlinewebfonts.com/icon -->
<!DOCTYPE svg PUBLIC "-//W3C//DTD SVG 1.1//EN" "http://www.w3.org/Graphics/SVG/1.1/DTD/svg11.dtd">
<svg version="1.1" xmlns="http://www.w3.org/2000/svg" xmlns:xlink="http://www.w3.org/1999/xlink" x="0px" y="0px" viewBox="0 0 1000 1000" enable-background="new 0 0 1000 1000" xml:space="preserve">
<metadata> Svg Vector Icons : http://www.onlinewebfonts.com/icon </metadata>
<g><path d="M864,10H136.6c-36.2,0-65,29.4-65,65.6v848.8c0,36.2,29.4,65.6,65,65.6h575.9l215.9-217.1l0,0V75.6C929,39.4,899.5,10,864,10z M712.5,937.9V801.7c0-15.9,12.9-28.8,28.2-28.8h136.8L712.5,937.9z M892.2,736.1H740.7c-36.2,0-65,29.4-65,65.6v152.1H136.6c-15.9,0-28.2-12.9-28.2-28.8V75.6c0-15.9,12.9-28.8,28.2-28.8h726.7c15.9,0,28.2,12.9,28.2,28.8v660.5H892.2z"/><path d="M227.4,365.7L163,567.5h41.1l14.1-51.5h65.6l14.1,51.5h42.3l-65-201.8H227.4z M226.8,484.7l6.1-22.1c6.1-20.9,12.3-43.5,17.2-65.6h1.2c6.1,22.1,11.7,44.8,17.8,65.6l6.1,22.1H226.8z"/><path d="M429.2,499.4c0,27.6-9.2,37.4-27,37.4c-11.7,0-22.1-6.1-30-20.9l-27.6,20.2c13.5,23.3,33.1,35.6,62.6,35.6c43.5,0,62.6-31.3,62.6-68.7V365.7h-40.5V499.4z"/><path d="M556.7,365.7l-64.4,201.8h41.1l14.1-51.5h65.6l14.1,51.5h42.3l-65.6-201.8H556.7z M556.1,484.7l6.1-22.1c6.1-20.9,12.3-43.5,17.2-65.6h0.6c6.1,22.1,11.7,44.8,17.8,65.6l6.1,22.1H556.1z"/><path d="M830.2,365.7h-42.3l-19,41.1c-4.3,9.8-8.6,19.6-13.5,31.9h-1.2c-6.1-12.3-10.4-22.1-14.7-31.9l-20.2-41.1h-44.8l52.7,97.5l-56.4,104.3h42.9l21.5-44.8c4.9-10.4,9.8-20.9,14.7-33.1h1.2c6.1,12.3,10.4,22.7,15.9,33.1l22.7,44.8h44.8l-56.4-101.8L830.2,365.7z"/></g>
</svg>