<?xml version="1.0" encoding="UTF-8"?><!DOCTYPE svg PUBLIC "-//W3C//DTD SVG 1.1//EN" "http://www.w3.org/Graphics/SVG/1.1/DTD/svg11.dtd"><svg xmlns="http://www.w3.org/2000/svg" xmlns:xlink="http://www.w3.org/1999/xlink" version="1.1" width="32" height="32" viewBox="0 0 32 32"><path fill="#444" d="M4.698 3.419l2.057 23.073 9.231 2.563 9.256-2.566L27.301 3.42H4.697zm8.528 5.975l-.409 4.441 9.671.001-.069.76-.665 7.45-.042.478-5.804 1.609-5.796-1.609-.396-4.443h2.84l.202 2.257 3.154.85 3.156-.852.328-3.67-9.671-.001.069-.76.665-7.45.209-2.086h11.287l.131 1.598.403 4.453h-2.841l-.262-2.922-2.889-.174h-.515V9.32l-2.755.074z"/><metadata><rdf:RDF xmlns:rdf="http://www.w3.org/1999/02/22-rdf-syntax-ns#" xmlns:rdfs="http://www.w3.org/2000/01/rdf-schema#" xmlns:dc="http://purl.org/dc/elements/1.1/"><rdf:Description about="https://iconscout.com/legal#licenses" dc:title="javascript" dc:description="javascript" dc:publisher="Iconscout" dc:date="2017-09-24" dc:format="image/svg+xml" dc:language="en"><dc:creator><rdf:Bag><rdf:li>Vorillaz</rdf:li></rdf:Bag></dc:creator></rdf:Description></rdf:RDF></metadata></svg>